<?xml version="1.0" encoding="UTF-8"?>
<svg xmlns="http://www.w3.org/2000/svg" viewBox="0 0 1024 1024" role="img" aria-labelledby="title desc">
  <title id="title">SVC application icon</title>
  <desc id="desc">Dark SVC application icon with the protected controller and road emblem.</desc>
  <defs>
    <linearGradient id="background" x1="120" y1="80" x2="904" y2="944" gradientUnits="userSpaceOnUse">
      <stop stop-color="#182431"/>
      <stop offset="1" stop-color="#05080C"/>
    </linearGradient>
    <radialGradient id="halo" cx="0" cy="0" r="1" gradientTransform="translate(512 468) rotate(90) scale(430)">
      <stop stop-color="#1C69D4" stop-opacity=".24"/>
      <stop offset="1" stop-color="#1C69D4" stop-opacity="0"/>
    </radialGradient>
  </defs>
  <rect width="1024" height="1024" fill="url(#background)"/>
  <rect x="28" y="28" width="968" height="968" rx="202" fill="none" stroke="#26394B" stroke-width="8"/>
  <rect width="1024" height="1024" fill="url(#halo)"/>
  <g transform="translate(143 122) scale(.72)">
    <g fill="#F5F8FC">
      <path d="M176 304 424 144v154l-112 74v244l112 72-94 126-154-104z"/>
      <path d="m848 304-248-160v154l112 74v244l-112 72 94 126 154-104z"/>
    </g>
    <g fill="#41C8FF">
      <path d="m454 718-144 224h172V718z"/>
      <path d="m570 718 144 224H542V718z"/>
    </g>
    <path d="M350 510h104l42-92 52 184 46-92h80" fill="none" stroke="#1C69D4" stroke-width="42"/>
  </g>
</svg>
